# xmcd CD database file
#
# Track frame offsets:
#	150
#	23305
#	41570
#	65977
#	91295
#	122655
#	144502
#	167577
#	183580
#	202975
#	215732
#	236502
#	257575
#
# Disc length: 3702 seconds
#
# Revision: 5
# Processed by: cddbd v1.5PL3 Copyright (c) Steve Scherf et al.
# Submitted via: CDex 1.40Release
#
DISCID=b40e740d
DTITLE=鈴木重子 - Just Beside You
DYEAR=2000
DGENRE=Japanese Jazz
TTITLE0='CAUSE I LOVE YOU
TTITLE1=IMAGINE
TTITLE2=TEARS IN HEAVEN
TTITLE3=ONLY TRUST YOUR HEART
TTITLE4=MY HEART WILL GO ON (Love Theme from "Titanic")
TTITLE5=FOR YOU
TTITLE6=DINDI
TTITLE7=ON THE SHORE
TTITLE8=OUT THERE, IN HERE
TTITLE9=IN MY LIFE
TTITLE10=COLORS OF THE WIND
TTITLE11=THE ROSE
TTITLE12=FURUSATO -Sercret Track-
EXTD=
EXTT0=
EXTT1=
EXTT2=
EXTT3=
EXTT4=
EXTT5=
EXTT6=
EXTT7=
EXTT8=
EXTT9=
EXTT10=
EXTT11=
EXTT12=
PLAYORDER=
